<svg xmlns="http://www.w3.org/2000/svg" xmlns:xlink="http://www.w3.org/1999/xlink" version="1.1" width="20" height="20" viewBox="0 0 20 20" xml:space="preserve">
<desc>Created with Fabric.js 3.5.0</desc>
<defs>
</defs>
<rect x="0" y="0" width="100%" height="100%" fill="rgba(255,255,255,0)"/>
<g transform="matrix(0.99 0 0 0.8088 9.9998 10.0003)" id="39215">
<path style="stroke: none; stroke-width: 1; stroke-dasharray: none; stroke-linecap: butt; stroke-dashoffset: 0; stroke-linejoin: miter; stroke-miterlimit: 4; is-custom-font: none; font-file-url: none; fill: rgb(255,255,255); fill-rule: evenodd; opacity: 1;" vector-effect="non-scaling-stroke" transform=" translate(-9, -11)" d="M 16 2 L 11.8 2 C 11.4 0.8 10.3 0 9 0 C 7.7 0 6.6 0.8 6.2 2 L 2 2 C 0.9 2 0 2.9 0 4 L 0 20 C 0 21.1 0.9 22 2 22 L 16 22 C 17.1 22 18 21.1 18 20 L 18 4 C 18 2.9 17.1 2 16 2 L 16 2 Z M 9 2 C 9.6 2 10 2.4 10 3 C 10 3.6 9.6 4 9 4 C 8.4 4 8 3.6 8 3 C 8 2.4 8.4 2 9 2 L 9 2 Z M 16 20 L 2 20 L 2 4 L 4 4 L 4 7 L 14 7 L 14 4 L 16 4 L 16 20 L 16 20 Z" stroke-linecap="round"/>
</g>
</svg>